# xmcd CD database file
# Copyright (C) 1993-1998 Ti Kan
# 
# Track frame offsets:
#     150
#     30150
#     50625
#     75975
#     107700
#     142425
#     162300
# 
# Disc length: 2393 seconds
# 
# Revision: 1
# Processed by: cddbd v1.4b41PL1 Copyright (c) Steve Scherf et al.
# Submitted via: DiscPlay 4.0.4
# 
DISCID=55095707
DTITLE=Cyberaktif - NothingStays/Temper
DYEAR=1900
DGENRE=
TTITLE0=Nothing Stays (Ext. Remix)
TTITLE1=Black+White
TTITLE2=On The Reign
TTITLE3=Temper
TTITLE4=Meltdown
TTITLE5=Dream Needle
TTITLE6=Nothing Stays (Version)
EXTD=
EXTT0=
EXTT1=
EXTT2=
EXTT3=
EXTT4=
EXTT5=
EXTT6=
PLAYORDER=
